<svg xmlns="http://www.w3.org/2000/svg" width="1280" height="160" viewBox="0 0 1280 160" role="img" aria-label="Deploy as multi-tenant SaaS or privately in your own environment"><title>Deploy as multi-tenant SaaS or privately in your own environment</title><rect x="1.0" y="1" width="630.0" height="158" rx="16" fill="#FAF8FF" stroke="#E4DEF7" stroke-width="1.5"/><g transform="translate(28.0 30) scale(1.8)" fill="none" stroke="#5B3CC4" stroke-width="1.7" stroke-linecap="round" stroke-linejoin="round"><path d="M7 18a4.5 4.5 0 0 1-.6-9A6 6 0 0 1 18 9.5a4 4 0 0 1-.5 8.5z"/></g><text x="92.0" y="62" font-family="-apple-system,BlinkMacSystemFont,'Segoe UI','Helvetica Neue',Helvetica,Arial,sans-serif" font-size="22" font-weight="700" fill="#1F2328">Multi-tenant SaaS</text><text x="92.0" y="96" font-family="-apple-system,BlinkMacSystemFont,'Segoe UI','Helvetica Neue',Helvetica,Arial,sans-serif" font-size="18" fill="#59636E">Secure, managed and live in days — for single</text><text x="92.0" y="123" font-family="-apple-system,BlinkMacSystemFont,'Segoe UI','Helvetica Neue',Helvetica,Arial,sans-serif" font-size="18" fill="#59636E">businesses, consultants and distributed teams.</text><rect x="649.0" y="1" width="630.0" height="158" rx="16" fill="#F2FAF8" stroke="#CDE9E2" stroke-width="1.5"/><g transform="translate(676.0 30) scale(1.8)" fill="none" stroke="#17705F" stroke-width="1.7" stroke-linecap="round" stroke-linejoin="round"><rect x="4" y="4" width="16" height="6" rx="1.5"/><rect x="4" y="14" width="16" height="6" rx="1.5"/><path d="M8 7h.01M8 17h.01"/></g><text x="740.0" y="62" font-family="-apple-system,BlinkMacSystemFont,'Segoe UI','Helvetica Neue',Helvetica,Arial,sans-serif" font-size="22" font-weight="700" fill="#1F2328">Private deployment</text><text x="740.0" y="96" font-family="-apple-system,BlinkMacSystemFont,'Segoe UI','Helvetica Neue',Helvetica,Arial,sans-serif" font-size="18" fill="#59636E">Run the same operating model inside your</text><text x="740.0" y="123" font-family="-apple-system,BlinkMacSystemFont,'Segoe UI','Helvetica Neue',Helvetica,Arial,sans-serif" font-size="18" fill="#59636E">own environment and intranet.</text></svg>
